<mxfile host="app.diagrams.net" modified="2024-05-31T07:26:24.074Z" agent="Mozilla/5.0 (Windows NT 10.0; Win64; x64) AppleWebKit/537.36 (KHTML, like Gecko) Chrome/125.0.0.0 Safari/537.36" etag="tvqZQwK6k1R6AMmaZ_2n" version="24.4.10" type="github">
  <diagram name="Page-1" id="_-apCk8agwDI5kiSu33f">
    <mxGraphModel dx="3653" dy="1545" grid="1" gridSize="10" guides="1" tooltips="1" connect="1" arrows="1" fold="1" page="1" pageScale="1" pageWidth="827" pageHeight="1169" math="0" shadow="0">
      <root>
        <mxCell id="0" />
        <mxCell id="1" parent="0" />
        <mxCell id="LyKHBdX5OJVYweHKs56o-1" value="BLOCK DIAGRAM FOR THE STUDENT MANAGEMENT SYSTEM" style="rounded=1;whiteSpace=wrap;html=1;" vertex="1" parent="1">
          <mxGeometry x="258" y="350" width="350" height="60" as="geometry" />
        </mxCell>
        <mxCell id="LyKHBdX5OJVYweHKs56o-3" value="ADD/REGISTER STUDENTS" style="rounded=0;whiteSpace=wrap;html=1;" vertex="1" parent="1">
          <mxGeometry x="9" y="629.5" width="120" height="40" as="geometry" />
        </mxCell>
        <mxCell id="LyKHBdX5OJVYweHKs56o-5" value="DISPLAY STUDENTS&amp;nbsp;" style="rounded=0;whiteSpace=wrap;html=1;" vertex="1" parent="1">
          <mxGeometry x="149" y="630" width="120" height="40.5" as="geometry" />
        </mxCell>
        <mxCell id="LyKHBdX5OJVYweHKs56o-7" value="SEARCH STUDENT" style="rounded=0;whiteSpace=wrap;html=1;" vertex="1" parent="1">
          <mxGeometry x="289" y="630.5" width="120" height="40" as="geometry" />
        </mxCell>
        <mxCell id="LyKHBdX5OJVYweHKs56o-9" value="UPDATE STUDENTS" style="rounded=0;whiteSpace=wrap;html=1;" vertex="1" parent="1">
          <mxGeometry x="449" y="629.5" width="120" height="40" as="geometry" />
        </mxCell>
        <mxCell id="LyKHBdX5OJVYweHKs56o-11" value="DELETE STUDENTS" style="rounded=0;whiteSpace=wrap;html=1;" vertex="1" parent="1">
          <mxGeometry x="589" y="630.5" width="120" height="40" as="geometry" />
        </mxCell>
        <mxCell id="LyKHBdX5OJVYweHKs56o-12" value="EXIT" style="rounded=0;whiteSpace=wrap;html=1;" vertex="1" parent="1">
          <mxGeometry x="729" y="630.5" width="90" height="40" as="geometry" />
        </mxCell>
        <mxCell id="LyKHBdX5OJVYweHKs56o-13" style="edgeStyle=orthogonalEdgeStyle;rounded=0;orthogonalLoop=1;jettySize=auto;html=1;exitX=0.5;exitY=1;exitDx=0;exitDy=0;entryX=0.5;entryY=0;entryDx=0;entryDy=0;" edge="1" parent="1" source="LyKHBdX5OJVYweHKs56o-14" target="LyKHBdX5OJVYweHKs56o-21">
          <mxGeometry relative="1" as="geometry" />
        </mxCell>
        <mxCell id="LyKHBdX5OJVYweHKs56o-14" value="START" style="ellipse;whiteSpace=wrap;html=1;" vertex="1" parent="1">
          <mxGeometry x="383" y="430" width="85" height="60" as="geometry" />
        </mxCell>
        <mxCell id="LyKHBdX5OJVYweHKs56o-15" style="edgeStyle=orthogonalEdgeStyle;rounded=0;orthogonalLoop=1;jettySize=auto;html=1;exitX=0;exitY=0.5;exitDx=0;exitDy=0;entryX=0.5;entryY=0;entryDx=0;entryDy=0;" edge="1" parent="1" source="LyKHBdX5OJVYweHKs56o-21" target="LyKHBdX5OJVYweHKs56o-3">
          <mxGeometry relative="1" as="geometry" />
        </mxCell>
        <mxCell id="LyKHBdX5OJVYweHKs56o-16" style="edgeStyle=orthogonalEdgeStyle;rounded=0;orthogonalLoop=1;jettySize=auto;html=1;entryX=0.5;entryY=0;entryDx=0;entryDy=0;" edge="1" parent="1" source="LyKHBdX5OJVYweHKs56o-21" target="LyKHBdX5OJVYweHKs56o-5">
          <mxGeometry relative="1" as="geometry" />
        </mxCell>
        <mxCell id="LyKHBdX5OJVYweHKs56o-17" style="edgeStyle=orthogonalEdgeStyle;rounded=0;orthogonalLoop=1;jettySize=auto;html=1;exitX=1;exitY=0.5;exitDx=0;exitDy=0;entryX=0.5;entryY=0;entryDx=0;entryDy=0;" edge="1" parent="1" source="LyKHBdX5OJVYweHKs56o-21" target="LyKHBdX5OJVYweHKs56o-11">
          <mxGeometry relative="1" as="geometry" />
        </mxCell>
        <mxCell id="LyKHBdX5OJVYweHKs56o-18" style="edgeStyle=orthogonalEdgeStyle;rounded=0;orthogonalLoop=1;jettySize=auto;html=1;exitX=1;exitY=0.5;exitDx=0;exitDy=0;entryX=0.5;entryY=0;entryDx=0;entryDy=0;" edge="1" parent="1" source="LyKHBdX5OJVYweHKs56o-21" target="LyKHBdX5OJVYweHKs56o-12">
          <mxGeometry relative="1" as="geometry" />
        </mxCell>
        <mxCell id="LyKHBdX5OJVYweHKs56o-19" style="edgeStyle=orthogonalEdgeStyle;rounded=0;orthogonalLoop=1;jettySize=auto;html=1;exitX=0;exitY=0.5;exitDx=0;exitDy=0;entryX=0.5;entryY=0;entryDx=0;entryDy=0;" edge="1" parent="1" source="LyKHBdX5OJVYweHKs56o-21" target="LyKHBdX5OJVYweHKs56o-7">
          <mxGeometry relative="1" as="geometry" />
        </mxCell>
        <mxCell id="LyKHBdX5OJVYweHKs56o-20" style="edgeStyle=orthogonalEdgeStyle;rounded=0;orthogonalLoop=1;jettySize=auto;html=1;exitX=1;exitY=0.5;exitDx=0;exitDy=0;" edge="1" parent="1" source="LyKHBdX5OJVYweHKs56o-21" target="LyKHBdX5OJVYweHKs56o-9">
          <mxGeometry relative="1" as="geometry" />
        </mxCell>
        <mxCell id="LyKHBdX5OJVYweHKs56o-21" value="MAIN MENU" style="rhombus;whiteSpace=wrap;html=1;" vertex="1" parent="1">
          <mxGeometry x="375.5" y="530" width="100" height="80" as="geometry" />
        </mxCell>
      </root>
    </mxGraphModel>
  </diagram>
</mxfile>
